<?xml version="1.0" encoding="UTF-8" standalone="no"?>
<!DOCTYPE svg PUBLIC "-//W3C//DTD SVG 1.1//EN"
 "http://www.w3.org/Graphics/SVG/1.1/DTD/svg11.dtd">
<!-- Generated by graphviz version 2.40.1 (20161225.0304)
 -->
<!-- Title: dependencies Pages: 1 -->
<svg width="1042pt" height="284pt"
 viewBox="0.00 0.00 1042.00 284.00" xmlns="http://www.w3.org/2000/svg" xmlns:xlink="http://www.w3.org/1999/xlink">
<g id="graph0" class="graph" transform="scale(1 1) rotate(0) translate(4 280)">
<title>dependencies</title>
<polygon fill="#ffffff" stroke="transparent" points="-4,4 -4,-280 1038,-280 1038,4 -4,4"/>
<text text-anchor="start" x="496.0091" y="-42.4" font-family="sans-serif" font-weight="bold" font-size="14.00" fill="#000000">Legend</text>
<polygon fill="#ffffb3" stroke="transparent" points="283,-10 283,-30 303,-30 303,-10 283,-10"/>
<text text-anchor="start" x="306.629" y="-15.4" font-family="sans-serif" font-size="14.00" fill="#000000"> &#160;Declarations</text>
<polygon fill="#8dd3c7" stroke="transparent" points="396,-10 396,-30 416,-30 416,-10 396,-10"/>
<text text-anchor="start" x="419.7251" y="-15.4" font-family="sans-serif" font-size="14.00" fill="#000000"> &#160;Module</text>
<polygon fill="#80b1d3" stroke="transparent" points="482,-10 482,-30 502,-30 502,-10 482,-10"/>
<text text-anchor="start" x="505.7812" y="-15.4" font-family="sans-serif" font-size="14.00" fill="#000000"> &#160;Bootstrap</text>
<polygon fill="#fdb462" stroke="transparent" points="579,-10 579,-30 599,-30 599,-10 579,-10"/>
<text text-anchor="start" x="602.6732" y="-15.4" font-family="sans-serif" font-size="14.00" fill="#000000"> &#160;Providers</text>
<polygon fill="#fb8072" stroke="transparent" points="675,-10 675,-30 695,-30 695,-10 675,-10"/>
<text text-anchor="start" x="698.7258" y="-15.4" font-family="sans-serif" font-size="14.00" fill="#000000"> &#160;Exports</text>
<g id="clust1" class="cluster">
<title>cluster_AppModule</title>
<polygon fill="none" stroke="#000000" stroke-dasharray="1,5" points="8,-70 8,-268 1026,-268 1026,-70 8,-70"/>
</g>
<g id="clust2" class="cluster">
<title>cluster_AppModule_declarations</title>
<polygon fill="none" stroke="#000000" points="168,-78 168,-130 1018,-130 1018,-78 168,-78"/>
</g>
<g id="clust9" class="cluster">
<title>cluster_AppModule_imports</title>
<polygon fill="none" stroke="#000000" points="16,-78 16,-130 160,-130 160,-78 16,-78"/>
</g>
<g id="clust11" class="cluster">
<title>cluster_AppModule_bootstrap</title>
<polygon fill="none" stroke="#000000" points="396,-208 396,-260 520,-260 520,-208 396,-208"/>
</g>
<!-- AppComponent -->
<g id="node1" class="node">
<title>AppComponent</title>
<polygon fill="#ffffb3" stroke="#000000" points="1009.9399,-122 904.0601,-122 904.0601,-86 1009.9399,-86 1009.9399,-122"/>
<text text-anchor="middle" x="957" y="-99.8" font-family="Times,serif" font-size="14.00" fill="#000000">AppComponent</text>
</g>
<!-- AppModule -->
<g id="node7" class="node">
<title>AppModule</title>
<polygon fill="#8dd3c7" stroke="#000000" points="499.6571,-187 496.6571,-191 475.6571,-191 472.6571,-187 416.3429,-187 416.3429,-151 499.6571,-151 499.6571,-187"/>
<text text-anchor="middle" x="458" y="-164.8" font-family="Times,serif" font-size="14.00" fill="#000000">AppModule</text>
</g>
<!-- AppComponent&#45;&gt;AppModule -->
<g id="edge1" class="edge">
<title>AppComponent&#45;&gt;AppModule</title>
<path fill="none" stroke="#000000" d="M957,-122.2921C957,-144.2057 957,-178 957,-178 957,-178 509.6862,-178 509.6862,-178"/>
<polygon fill="#000000" stroke="#000000" points="509.6862,-174.5001 499.6862,-178 509.6861,-181.5001 509.6862,-174.5001"/>
</g>
<!-- CasestudyComponent -->
<g id="node2" class="node">
<title>CasestudyComponent</title>
<polygon fill="#ffffb3" stroke="#000000" points="886.3781,-122 747.6219,-122 747.6219,-86 886.3781,-86 886.3781,-122"/>
<text text-anchor="middle" x="817" y="-99.8" font-family="Times,serif" font-size="14.00" fill="#000000">CasestudyComponent</text>
</g>
<!-- CasestudyComponent&#45;&gt;AppModule -->
<g id="edge2" class="edge">
<title>CasestudyComponent&#45;&gt;AppModule</title>
<path fill="none" stroke="#000000" d="M817,-122.1061C817,-141.3391 817,-169 817,-169 817,-169 509.8845,-169 509.8845,-169"/>
<polygon fill="#000000" stroke="#000000" points="509.8845,-165.5001 499.8845,-169 509.8844,-172.5001 509.8845,-165.5001"/>
</g>
<!-- FooterComponent -->
<g id="node3" class="node">
<title>FooterComponent</title>
<polygon fill="#ffffb3" stroke="#000000" points="729.8809,-122 612.1191,-122 612.1191,-86 729.8809,-86 729.8809,-122"/>
<text text-anchor="middle" x="671" y="-99.8" font-family="Times,serif" font-size="14.00" fill="#000000">FooterComponent</text>
</g>
<!-- FooterComponent&#45;&gt;AppModule -->
<g id="edge3" class="edge">
<title>FooterComponent&#45;&gt;AppModule</title>
<path fill="none" stroke="#000000" d="M671,-122.027C671,-138.3976 671,-160 671,-160 671,-160 509.8278,-160 509.8278,-160"/>
<polygon fill="#000000" stroke="#000000" points="509.8278,-156.5001 499.8278,-160 509.8278,-163.5001 509.8278,-156.5001"/>
</g>
<!-- HeaderComponent -->
<g id="node4" class="node">
<title>HeaderComponent</title>
<polygon fill="#ffffb3" stroke="#000000" points="593.7437,-122 472.2563,-122 472.2563,-86 593.7437,-86 593.7437,-122"/>
<text text-anchor="middle" x="533" y="-99.8" font-family="Times,serif" font-size="14.00" fill="#000000">HeaderComponent</text>
</g>
<!-- HeaderComponent&#45;&gt;AppModule -->
<g id="edge4" class="edge">
<title>HeaderComponent&#45;&gt;AppModule</title>
<path fill="none" stroke="#000000" d="M485.9783,-122.1061C485.9783,-122.1061 485.9783,-140.991 485.9783,-140.991"/>
<polygon fill="#000000" stroke="#000000" points="482.4783,-140.9909 485.9783,-150.991 489.4783,-140.991 482.4783,-140.9909"/>
</g>
<!-- HomepageComponent -->
<g id="node5" class="node">
<title>HomepageComponent</title>
<polygon fill="#ffffb3" stroke="#000000" points="453.9734,-122 312.0266,-122 312.0266,-86 453.9734,-86 453.9734,-122"/>
<text text-anchor="middle" x="383" y="-99.8" font-family="Times,serif" font-size="14.00" fill="#000000">HomepageComponent</text>
</g>
<!-- HomepageComponent&#45;&gt;AppModule -->
<g id="edge5" class="edge">
<title>HomepageComponent&#45;&gt;AppModule</title>
<path fill="none" stroke="#000000" d="M435.0793,-122.1061C435.0793,-122.1061 435.0793,-140.991 435.0793,-140.991"/>
<polygon fill="#000000" stroke="#000000" points="431.5793,-140.9909 435.0793,-150.991 438.5793,-140.991 431.5793,-140.9909"/>
</g>
<!-- WorksComponent -->
<g id="node6" class="node">
<title>WorksComponent</title>
<polygon fill="#ffffb3" stroke="#000000" points="294.1527,-122 175.8473,-122 175.8473,-86 294.1527,-86 294.1527,-122"/>
<text text-anchor="middle" x="235" y="-99.8" font-family="Times,serif" font-size="14.00" fill="#000000">WorksComponent</text>
</g>
<!-- WorksComponent&#45;&gt;AppModule -->
<g id="edge6" class="edge">
<title>WorksComponent&#45;&gt;AppModule</title>
<path fill="none" stroke="#000000" d="M235,-122.027C235,-138.3976 235,-160 235,-160 235,-160 406.317,-160 406.317,-160"/>
<polygon fill="#000000" stroke="#000000" points="406.317,-163.5001 416.317,-160 406.317,-156.5001 406.317,-163.5001"/>
</g>
<!-- AppComponent  -->
<g id="node9" class="node">
<title>AppComponent </title>
<polygon fill="#80b1d3" stroke="#000000" points="512.439,-252 403.561,-252 403.561,-216 512.439,-216 512.439,-252"/>
<text text-anchor="middle" x="458" y="-229.8" font-family="Times,serif" font-size="14.00" fill="#000000">AppComponent </text>
</g>
<!-- AppModule&#45;&gt;AppComponent  -->
<g id="edge9" class="edge">
<title>AppModule&#45;&gt;AppComponent </title>
<path fill="none" stroke="#000000" stroke-dasharray="1,5" d="M458,-187.1061C458,-187.1061 458,-205.991 458,-205.991"/>
<polygon fill="#000000" stroke="#000000" points="454.5001,-205.9909 458,-215.991 461.5001,-205.991 454.5001,-205.9909"/>
</g>
<!-- AppRoutingModule -->
<g id="node8" class="node">
<title>AppRoutingModule</title>
<polygon fill="#8dd3c7" stroke="#000000" points="152.2744,-122 149.2744,-126 128.2744,-126 125.2744,-122 23.7256,-122 23.7256,-86 152.2744,-86 152.2744,-122"/>
<text text-anchor="middle" x="88" y="-99.8" font-family="Times,serif" font-size="14.00" fill="#000000">AppRoutingModule</text>
</g>
<!-- AppRoutingModule&#45;&gt;AppModule -->
<g id="edge7" class="edge">
<title>AppRoutingModule&#45;&gt;AppModule</title>
<path fill="none" stroke="#000000" d="M66.5376,-122.2921C66.5376,-144.2057 66.5376,-178 66.5376,-178 66.5376,-178 406.1067,-178 406.1067,-178"/>
<polygon fill="#000000" stroke="#000000" points="406.1067,-181.5001 416.1067,-178 406.1066,-174.5001 406.1067,-181.5001"/>
</g>
<!-- AppRoutingModule&#45;&gt;AppModule -->
<g id="edge8" class="edge">
<title>AppRoutingModule&#45;&gt;AppModule</title>
<path fill="none" stroke="#000000" d="M109.4624,-122.1061C109.4624,-141.3391 109.4624,-169 109.4624,-169 109.4624,-169 406.3044,-169 406.3044,-169"/>
<polygon fill="#000000" stroke="#000000" points="406.3044,-172.5001 416.3044,-169 406.3044,-165.5001 406.3044,-172.5001"/>
</g>
</g>
</svg>
